<?xml version="1.0" encoding="utf-8"?>
<!-- Generator: Adobe Illustrator 14.0.0, SVG Export Plug-In . SVG Version: 6.00 Build 43363)  -->
<!DOCTYPE svg PUBLIC "-//W3C//DTD SVG 1.1//EN" "http://www.w3.org/Graphics/SVG/1.1/DTD/svg11.dtd">
<svg version="1.1"
	 id="svg2" xmlns:dc="http://purl.org/dc/elements/1.1/" xmlns:inkscape="http://www.inkscape.org/namespaces/inkscape" sodipodi:docname="ramaze_circle_logo.svg" xmlns:cc="http://creativecommons.org/ns#" xmlns:rdf="http://www.w3.org/1999/02/22-rdf-syntax-ns#" xmlns:svg="http://www.w3.org/2000/svg" xmlns:sodipodi="http://sodipodi.sourceforge.net/DTD/sodipodi-0.dtd" inkscape:version="0.48.1 r9760"
	 xmlns="http://www.w3.org/2000/svg" xmlns:xlink="http://www.w3.org/1999/xlink" x="0px" y="0px" width="300px" height="300px"
	 viewBox="-64.75 -65.013 300 300" enable-background="new -64.75 -65.013 300 300" xml:space="preserve">
<sodipodi:namedview  id="base" fit-margin-bottom="0" fit-margin-right="0" fit-margin-left="0" fit-margin-top="0" inkscape:window-y="19" inkscape:window-x="0" showgrid="false" inkscape:current-layer="layer1" inkscape:document-units="px" inkscape:cy="304.76131" inkscape:pageopacity="0.0" borderopacity="1.0" bordercolor="#666666" pagecolor="#ffffff" inkscape:cx="174.2785" inkscape:zoom="0.35355339" inkscape:window-height="747" inkscape:pageshadow="2" inkscape:window-width="1364" inkscape:window-maximized="0">
	</sodipodi:namedview>
<g id="layer1" transform="translate(-48.0832, -566.213)" inkscape:groupmode="layer" inkscape:label="Layer 1">
	<g id="g3090" transform="matrix(0.382148, 0, 0, 0.382148, 29.7083, 471.954)">
		<path id="path2985-0-2-9" inkscape:connector-curvature="0" fill="#4D4D4D" d="M478.606,340.975L377.809,399.19
			c9.905,17.125,15.573,37.008,15.573,58.215c0,32.151-13.043,61.245-34.115,82.315l82.347,82.344
			C516.135,547.542,531.305,432.248,478.606,340.975z"/>
		
			<radialGradient id="path4022_1_" cx="1471.6052" cy="-11840.3555" r="258.7954" gradientTransform="matrix(0.3821 0 0 -0.0439 -299.9709 175.6774)" gradientUnits="userSpaceOnUse">
			<stop  offset="0" style="stop-color:#000000"/>
			<stop  offset="1" style="stop-color:#000000;stop-opacity:0"/>
		</radialGradient>
		
			<path id="path4022" sodipodi:type="arc" sodipodi:cx="148.49242" sodipodi:cy="779.41895" sodipodi:rx="258.80109" sodipodi:ry="29.698484" fill="url(#path4022_1_)" d="
			M521.2,694.912c0,16.404-115.87,29.697-258.801,29.697S3.598,711.316,3.598,694.912c0-16.403,115.87-29.697,258.801-29.697
			S521.2,678.509,521.2,694.912z"/>
		<path id="path2985-0-1" inkscape:connector-curvature="0" fill="#B3B3B3" d="M359.266,539.719
			c-21.067,21.07-50.164,34.113-82.314,34.113v116.429c61.758,0,120.988-24.53,164.661-68.197L359.266,539.719z"/>
		<path id="path2985-3" inkscape:connector-curvature="0" fill="#FF0000" d="M276.952,224.547
			c-128.603,0-232.857,104.254-232.857,232.857c0,128.602,104.254,232.857,232.857,232.857V573.832
			c-64.302,0-116.429-52.126-116.429-116.428s52.128-116.429,116.429-116.429c43.095,0,80.724,23.413,100.856,58.215l100.797-58.215
			C437.011,268.929,360.145,224.547,276.952,224.547z"/>
		
			<linearGradient id="path2985-2-4_1_" gradientUnits="userSpaceOnUse" x1="1924.123" y1="-878.1219" x2="1924.123" y2="-1276.0308" gradientTransform="matrix(0.3821 0 0 -0.3821 -458.3633 -76.8066)">
			<stop  offset="0" style="stop-color:#000000;stop-opacity:0.4902"/>
			<stop  offset="1" style="stop-color:#FFFFFF;stop-opacity:0.4902"/>
		</linearGradient>
		<path id="path2985-2-4" inkscape:connector-curvature="0" fill="url(#path2985-2-4_1_)" d="M276.95,258.097
			c-110.061,0-199.305,89.244-199.305,199.306c0,110.064,89.244,199.277,199.305,199.277c110.063,0,199.28-89.214,199.28-199.277
			C476.229,347.341,387.013,258.097,276.95,258.097z M276.95,340.764c64.418,0,116.641,52.221,116.641,116.639
			S341.368,574.042,276.95,574.042c-64.417,0-116.637-52.221-116.637-116.639S212.533,340.764,276.95,340.764z"/>
		<path id="path2985-0-2" inkscape:connector-curvature="0" fill="#4D4D4D" d="M493.453,332.404l-108.219,62.5
			c10.633,18.385,16.718,39.732,16.718,62.5c0,34.518-14.004,65.753-36.625,88.374l88.406,88.409
			C533.743,554.176,550.029,430.397,493.453,332.404z"/>
		<path id="path2985" inkscape:connector-curvature="0" fill="#FF0000" d="M276.952,207.404c-138.071,0-250,111.929-250,250
			c0,138.073,111.929,250.002,250,250.002V582.403c-69.036,0-125-55.964-125-124.999c0-69.036,55.964-125,125-125
			c46.266,0,86.668,25.137,108.282,62.5l108.219-62.5C448.794,255.054,366.268,207.404,276.952,207.404z"/>
		<path id="path2985-0" inkscape:connector-curvature="0" fill="#B3B3B3" d="M365.328,545.778
			c-22.621,22.621-53.859,36.625-88.375,36.625v125.003c66.304,0,129.896-26.337,176.781-73.219L365.328,545.778z"/>
	</g>
</g>
</svg>
